<svg xmlns="http://www.w3.org/2000/svg" xmlns:xlink="http://www.w3.org/1999/xlink" width="170" zoomAndPan="magnify" viewBox="0 0 127.5 44.999999" height="60" preserveAspectRatio="xMidYMid meet" version="1.0"><defs><g/><clipPath id="45edf61e70"><path d="M 0 0.0859375 L 127 0.0859375 L 127 44.910156 L 0 44.910156 Z M 0 0.0859375 " clip-rule="nonzero"/></clipPath></defs><g clip-path="url(#45edf61e70)"><path fill="#ffffff" d="M 0 0.0859375 L 127 0.0859375 L 127 44.910156 L 0 44.910156 Z M 0 0.0859375 " fill-opacity="1" fill-rule="nonzero"/><path fill="#ffffff" d="M 0 0.0859375 L 127 0.0859375 L 127 44.910156 L 0 44.910156 Z M 0 0.0859375 " fill-opacity="1" fill-rule="nonzero"/></g><path fill="#1c274c" d="M 13.445312 33.59375 C 8.164062 33.59375 5.523438 33.59375 3.882812 31.953125 C 2.242188 30.308594 2.242188 27.667969 2.242188 22.386719 C 2.242188 17.105469 2.242188 14.460938 3.882812 12.820312 C 5.523438 11.179688 8.164062 11.179688 13.445312 11.179688 C 18.730469 11.179688 21.371094 11.179688 23.011719 12.820312 C 24.652344 14.460938 24.652344 17.105469 24.652344 22.386719 C 24.652344 27.667969 24.652344 30.308594 23.011719 31.953125 C 21.371094 33.59375 18.730469 33.59375 13.445312 33.59375 Z M 13.445312 33.59375 " fill-opacity="0.5" fill-rule="nonzero"/><path fill="#1c274c" d="M 13.445312 17.0625 C 10.507812 17.0625 8.125 19.445312 8.125 22.386719 C 8.125 25.328125 10.507812 27.710938 13.445312 27.710938 C 16.386719 27.710938 18.769531 25.328125 18.769531 22.386719 C 18.769531 19.445312 16.386719 17.0625 13.445312 17.0625 Z M 13.445312 18.746094 C 11.4375 18.746094 9.804688 20.375 9.804688 22.386719 C 9.804688 24.398438 11.4375 26.027344 13.445312 26.027344 C 15.457031 26.027344 17.089844 24.398438 17.089844 22.386719 C 17.089844 20.375 15.457031 18.746094 13.445312 18.746094 Z M 13.445312 18.746094 " fill-opacity="1" fill-rule="evenodd"/><g fill="#000000" fill-opacity="0.4"><g transform="translate(28.836581, 32.386972)"><g><path d="M 1.6875 0 C 1.59375 0 1.515625 -0.03125 1.453125 -0.09375 C 1.398438 -0.15625 1.375 -0.226562 1.375 -0.3125 L 1.375 -17.8125 C 1.375 -17.894531 1.398438 -17.96875 1.453125 -18.03125 C 1.515625 -18.09375 1.59375 -18.125 1.6875 -18.125 L 7.25 -18.125 C 8.40625 -18.125 9.425781 -17.90625 10.3125 -17.46875 C 11.207031 -17.039062 11.894531 -16.429688 12.375 -15.640625 C 12.851562 -14.847656 13.09375 -13.925781 13.09375 -12.875 L 13.09375 -5.25 C 13.09375 -4.195312 12.851562 -3.273438 12.375 -2.484375 C 11.894531 -1.691406 11.207031 -1.078125 10.3125 -0.640625 C 9.425781 -0.210938 8.40625 0 7.25 0 Z M 5.015625 -3.265625 C 5.015625 -3.171875 5.0625 -3.125 5.15625 -3.125 L 7.28125 -3.15625 C 7.914062 -3.15625 8.429688 -3.382812 8.828125 -3.84375 C 9.222656 -4.300781 9.429688 -4.910156 9.453125 -5.671875 L 9.453125 -12.453125 C 9.453125 -13.234375 9.253906 -13.847656 8.859375 -14.296875 C 8.460938 -14.753906 7.9375 -14.984375 7.28125 -14.984375 L 5.15625 -14.984375 C 5.0625 -14.984375 5.015625 -14.941406 5.015625 -14.859375 Z M 5.015625 -3.265625 "/></g></g></g><g fill="#000000" fill-opacity="0.4"><g transform="translate(42.998781, 32.386972)"><g><path d="M 1.6875 0 C 1.59375 0 1.515625 -0.03125 1.453125 -0.09375 C 1.398438 -0.15625 1.375 -0.226562 1.375 -0.3125 L 1.375 -17.8125 C 1.375 -17.894531 1.398438 -17.96875 1.453125 -18.03125 C 1.515625 -18.09375 1.59375 -18.125 1.6875 -18.125 L 4.71875 -18.125 C 4.800781 -18.125 4.867188 -18.09375 4.921875 -18.03125 C 4.984375 -17.96875 5.015625 -17.894531 5.015625 -17.8125 L 5.015625 -0.3125 C 5.015625 -0.226562 4.984375 -0.15625 4.921875 -0.09375 C 4.867188 -0.03125 4.800781 0 4.71875 0 Z M 1.6875 0 "/></g></g></g><g fill="#000000" fill-opacity="0.4"><g transform="translate(49.367893, 32.386972)"><g><path d="M 6.984375 0.203125 C 5.816406 0.203125 4.78125 -0.0234375 3.875 -0.484375 C 2.976562 -0.953125 2.285156 -1.613281 1.796875 -2.46875 C 1.304688 -3.320312 1.0625 -4.3125 1.0625 -5.4375 L 1.0625 -12.71875 C 1.0625 -13.832031 1.304688 -14.8125 1.796875 -15.65625 C 2.285156 -16.507812 2.976562 -17.164062 3.875 -17.625 C 4.78125 -18.09375 5.816406 -18.328125 6.984375 -18.328125 C 8.140625 -18.328125 9.171875 -18.097656 10.078125 -17.640625 C 10.984375 -17.179688 11.679688 -16.539062 12.171875 -15.71875 C 12.671875 -14.90625 12.921875 -13.976562 12.921875 -12.9375 L 12.921875 -12.375 C 12.921875 -12.289062 12.890625 -12.21875 12.828125 -12.15625 C 12.765625 -12.09375 12.691406 -12.0625 12.609375 -12.0625 L 9.578125 -12.0625 C 9.492188 -12.0625 9.421875 -12.09375 9.359375 -12.15625 C 9.296875 -12.21875 9.265625 -12.289062 9.265625 -12.375 L 9.265625 -12.921875 C 9.265625 -13.578125 9.054688 -14.117188 8.640625 -14.546875 C 8.234375 -14.984375 7.679688 -15.203125 6.984375 -15.203125 C 6.296875 -15.203125 5.738281 -14.972656 5.3125 -14.515625 C 4.894531 -14.066406 4.6875 -13.484375 4.6875 -12.765625 L 4.6875 -5.359375 C 4.6875 -4.628906 4.90625 -4.039062 5.34375 -3.59375 C 5.78125 -3.144531 6.351562 -2.921875 7.0625 -2.921875 C 7.738281 -2.921875 8.28125 -3.117188 8.6875 -3.515625 C 9.09375 -3.910156 9.296875 -4.457031 9.296875 -5.15625 L 9.296875 -6.75 C 9.296875 -6.84375 9.253906 -6.890625 9.171875 -6.890625 L 7.140625 -6.890625 C 7.054688 -6.890625 6.984375 -6.914062 6.921875 -6.96875 C 6.859375 -7.03125 6.828125 -7.109375 6.828125 -7.203125 L 6.828125 -9.546875 C 6.828125 -9.640625 6.859375 -9.710938 6.921875 -9.765625 C 6.984375 -9.828125 7.054688 -9.859375 7.140625 -9.859375 L 12.609375 -9.859375 C 12.691406 -9.859375 12.765625 -9.828125 12.828125 -9.765625 C 12.890625 -9.710938 12.921875 -9.640625 12.921875 -9.546875 L 12.921875 -5.4375 C 12.921875 -3.707031 12.378906 -2.332031 11.296875 -1.3125 C 10.222656 -0.300781 8.785156 0.203125 6.984375 0.203125 Z M 6.984375 0.203125 "/></g></g></g><g fill="#000000" fill-opacity="0.4"><g transform="translate(63.348865, 32.386972)"><g><path d="M 6.984375 0.203125 C 5.816406 0.203125 4.78125 -0.0234375 3.875 -0.484375 C 2.976562 -0.953125 2.285156 -1.613281 1.796875 -2.46875 C 1.304688 -3.320312 1.0625 -4.3125 1.0625 -5.4375 L 1.0625 -12.71875 C 1.0625 -13.832031 1.304688 -14.8125 1.796875 -15.65625 C 2.285156 -16.507812 2.976562 -17.164062 3.875 -17.625 C 4.78125 -18.09375 5.816406 -18.328125 6.984375 -18.328125 C 8.140625 -18.328125 9.171875 -18.097656 10.078125 -17.640625 C 10.984375 -17.179688 11.679688 -16.539062 12.171875 -15.71875 C 12.671875 -14.90625 12.921875 -13.976562 12.921875 -12.9375 L 12.921875 -12.375 C 12.921875 -12.289062 12.890625 -12.21875 12.828125 -12.15625 C 12.765625 -12.09375 12.691406 -12.0625 12.609375 -12.0625 L 9.578125 -12.0625 C 9.492188 -12.0625 9.421875 -12.09375 9.359375 -12.15625 C 9.296875 -12.21875 9.265625 -12.289062 9.265625 -12.375 L 9.265625 -12.921875 C 9.265625 -13.578125 9.054688 -14.117188 8.640625 -14.546875 C 8.234375 -14.984375 7.679688 -15.203125 6.984375 -15.203125 C 6.296875 -15.203125 5.738281 -14.972656 5.3125 -14.515625 C 4.894531 -14.066406 4.6875 -13.484375 4.6875 -12.765625 L 4.6875 -5.359375 C 4.6875 -4.628906 4.90625 -4.039062 5.34375 -3.59375 C 5.78125 -3.144531 6.351562 -2.921875 7.0625 -2.921875 C 7.738281 -2.921875 8.28125 -3.117188 8.6875 -3.515625 C 9.09375 -3.910156 9.296875 -4.457031 9.296875 -5.15625 L 9.296875 -6.75 C 9.296875 -6.84375 9.253906 -6.890625 9.171875 -6.890625 L 7.140625 -6.890625 C 7.054688 -6.890625 6.984375 -6.914062 6.921875 -6.96875 C 6.859375 -7.03125 6.828125 -7.109375 6.828125 -7.203125 L 6.828125 -9.546875 C 6.828125 -9.640625 6.859375 -9.710938 6.921875 -9.765625 C 6.984375 -9.828125 7.054688 -9.859375 7.140625 -9.859375 L 12.609375 -9.859375 C 12.691406 -9.859375 12.765625 -9.828125 12.828125 -9.765625 C 12.890625 -9.710938 12.921875 -9.640625 12.921875 -9.546875 L 12.921875 -5.4375 C 12.921875 -3.707031 12.378906 -2.332031 11.296875 -1.3125 C 10.222656 -0.300781 8.785156 0.203125 6.984375 0.203125 Z M 6.984375 0.203125 "/></g></g></g><g fill="#000000" fill-opacity="0.4"><g transform="translate(77.329838, 32.386972)"><g><path d="M 9.890625 0 C 9.703125 0 9.582031 -0.0859375 9.53125 -0.265625 L 6.90625 -7.40625 C 6.875 -7.476562 6.832031 -7.515625 6.78125 -7.515625 L 5.15625 -7.515625 C 5.0625 -7.515625 5.015625 -7.46875 5.015625 -7.375 L 5.015625 -0.3125 C 5.015625 -0.226562 4.984375 -0.15625 4.921875 -0.09375 C 4.867188 -0.03125 4.800781 0 4.71875 0 L 1.6875 0 C 1.59375 0 1.515625 -0.03125 1.453125 -0.09375 C 1.398438 -0.15625 1.375 -0.226562 1.375 -0.3125 L 1.375 -17.8125 C 1.375 -17.894531 1.398438 -17.96875 1.453125 -18.03125 C 1.515625 -18.09375 1.59375 -18.125 1.6875 -18.125 L 8 -18.125 C 9.019531 -18.125 9.925781 -17.894531 10.71875 -17.4375 C 11.507812 -16.976562 12.117188 -16.332031 12.546875 -15.5 C 12.984375 -14.675781 13.203125 -13.726562 13.203125 -12.65625 C 13.203125 -11.550781 12.957031 -10.59375 12.46875 -9.78125 C 11.988281 -8.96875 11.3125 -8.363281 10.4375 -7.96875 C 10.34375 -7.9375 10.316406 -7.878906 10.359375 -7.796875 L 13.3125 -0.359375 C 13.320312 -0.328125 13.328125 -0.285156 13.328125 -0.234375 C 13.328125 -0.078125 13.234375 0 13.046875 0 Z M 5.15625 -14.984375 C 5.0625 -14.984375 5.015625 -14.941406 5.015625 -14.859375 L 5.015625 -10.4375 C 5.015625 -10.34375 5.0625 -10.296875 5.15625 -10.296875 L 7.40625 -10.296875 C 8.039062 -10.296875 8.554688 -10.507812 8.953125 -10.9375 C 9.347656 -11.363281 9.546875 -11.929688 9.546875 -12.640625 C 9.546875 -13.359375 9.347656 -13.925781 8.953125 -14.34375 C 8.554688 -14.769531 8.039062 -14.984375 7.40625 -14.984375 Z M 5.15625 -14.984375 "/></g></g></g><g fill="#000000" fill-opacity="0.4"><g transform="translate(91.388475, 32.386972)"><g><path d="M 10.953125 0 C 10.765625 0 10.644531 -0.0859375 10.59375 -0.265625 L 10 -2.796875 C 9.976562 -2.867188 9.929688 -2.90625 9.859375 -2.90625 L 5.015625 -2.90625 C 4.953125 -2.90625 4.910156 -2.867188 4.890625 -2.796875 L 4.296875 -0.265625 C 4.242188 -0.0859375 4.132812 0 3.96875 0 L 0.828125 0 C 0.597656 0 0.507812 -0.113281 0.5625 -0.34375 L 5.234375 -17.859375 C 5.285156 -18.035156 5.40625 -18.125 5.59375 -18.125 L 9.34375 -18.125 C 9.53125 -18.125 9.648438 -18.035156 9.703125 -17.859375 L 14.375 -0.34375 L 14.390625 -0.234375 C 14.390625 -0.078125 14.296875 0 14.109375 0 Z M 5.59375 -5.875 C 5.570312 -5.820312 5.578125 -5.78125 5.609375 -5.75 C 5.648438 -5.726562 5.6875 -5.71875 5.71875 -5.71875 L 9.140625 -5.71875 C 9.171875 -5.71875 9.203125 -5.726562 9.234375 -5.75 C 9.273438 -5.78125 9.285156 -5.820312 9.265625 -5.875 L 7.484375 -13.390625 C 7.460938 -13.453125 7.4375 -13.484375 7.40625 -13.484375 C 7.375 -13.484375 7.347656 -13.453125 7.328125 -13.390625 Z M 5.59375 -5.875 "/></g></g></g><g fill="#000000" fill-opacity="0.4"><g transform="translate(106.327396, 32.386972)"><g><path d="M 11.34375 -17.921875 C 11.40625 -18.054688 11.523438 -18.125 11.703125 -18.125 L 14.703125 -18.125 C 14.785156 -18.125 14.859375 -18.09375 14.921875 -18.03125 C 14.984375 -17.96875 15.015625 -17.894531 15.015625 -17.8125 L 15.015625 -0.3125 C 15.015625 -0.226562 14.984375 -0.15625 14.921875 -0.09375 C 14.859375 -0.03125 14.785156 0 14.703125 0 L 11.671875 0 C 11.585938 0 11.515625 -0.03125 11.453125 -0.09375 C 11.390625 -0.15625 11.359375 -0.226562 11.359375 -0.3125 L 11.359375 -11.8125 C 11.359375 -11.875 11.34375 -11.910156 11.3125 -11.921875 C 11.28125 -11.929688 11.242188 -11.910156 11.203125 -11.859375 L 8.828125 -7.921875 C 8.753906 -7.785156 8.632812 -7.71875 8.46875 -7.71875 L 7.875 -7.71875 C 7.695312 -7.71875 7.578125 -7.785156 7.515625 -7.921875 L 5.125 -11.859375 C 5.09375 -11.910156 5.054688 -11.929688 5.015625 -11.921875 C 4.984375 -11.910156 4.96875 -11.875 4.96875 -11.8125 L 4.96875 -0.3125 C 4.96875 -0.226562 4.9375 -0.15625 4.875 -0.09375 C 4.820312 -0.03125 4.75 0 4.65625 0 L 1.625 0 C 1.539062 0 1.46875 -0.03125 1.40625 -0.09375 C 1.351562 -0.15625 1.328125 -0.226562 1.328125 -0.3125 L 1.328125 -17.8125 C 1.328125 -17.894531 1.351562 -17.96875 1.40625 -18.03125 C 1.46875 -18.09375 1.539062 -18.125 1.625 -18.125 L 4.640625 -18.125 C 4.804688 -18.125 4.925781 -18.054688 5 -17.921875 L 8.109375 -12.8125 C 8.160156 -12.707031 8.210938 -12.707031 8.265625 -12.8125 Z M 11.34375 -17.921875 "/></g></g></g><g fill="#1c274c" fill-opacity="1"><g transform="translate(27.691915, 31.242305)"><g><path d="M 1.6875 0 C 1.59375 0 1.515625 -0.03125 1.453125 -0.09375 C 1.398438 -0.15625 1.375 -0.226562 1.375 -0.3125 L 1.375 -17.8125 C 1.375 -17.894531 1.398438 -17.96875 1.453125 -18.03125 C 1.515625 -18.09375 1.59375 -18.125 1.6875 -18.125 L 7.25 -18.125 C 8.40625 -18.125 9.425781 -17.90625 10.3125 -17.46875 C 11.207031 -17.039062 11.894531 -16.429688 12.375 -15.640625 C 12.851562 -14.847656 13.09375 -13.925781 13.09375 -12.875 L 13.09375 -5.25 C 13.09375 -4.195312 12.851562 -3.273438 12.375 -2.484375 C 11.894531 -1.691406 11.207031 -1.078125 10.3125 -0.640625 C 9.425781 -0.210938 8.40625 0 7.25 0 Z M 5.015625 -3.265625 C 5.015625 -3.171875 5.0625 -3.125 5.15625 -3.125 L 7.28125 -3.15625 C 7.914062 -3.15625 8.429688 -3.382812 8.828125 -3.84375 C 9.222656 -4.300781 9.429688 -4.910156 9.453125 -5.671875 L 9.453125 -12.453125 C 9.453125 -13.234375 9.253906 -13.847656 8.859375 -14.296875 C 8.460938 -14.753906 7.9375 -14.984375 7.28125 -14.984375 L 5.15625 -14.984375 C 5.0625 -14.984375 5.015625 -14.941406 5.015625 -14.859375 Z M 5.015625 -3.265625 "/></g></g></g><g fill="#1c274c" fill-opacity="1"><g transform="translate(41.854115, 31.242305)"><g><path d="M 1.6875 0 C 1.59375 0 1.515625 -0.03125 1.453125 -0.09375 C 1.398438 -0.15625 1.375 -0.226562 1.375 -0.3125 L 1.375 -17.8125 C 1.375 -17.894531 1.398438 -17.96875 1.453125 -18.03125 C 1.515625 -18.09375 1.59375 -18.125 1.6875 -18.125 L 4.71875 -18.125 C 4.800781 -18.125 4.867188 -18.09375 4.921875 -18.03125 C 4.984375 -17.96875 5.015625 -17.894531 5.015625 -17.8125 L 5.015625 -0.3125 C 5.015625 -0.226562 4.984375 -0.15625 4.921875 -0.09375 C 4.867188 -0.03125 4.800781 0 4.71875 0 Z M 1.6875 0 "/></g></g></g><g fill="#1c274c" fill-opacity="1"><g transform="translate(48.223226, 31.242305)"><g><path d="M 6.984375 0.203125 C 5.816406 0.203125 4.78125 -0.0234375 3.875 -0.484375 C 2.976562 -0.953125 2.285156 -1.613281 1.796875 -2.46875 C 1.304688 -3.320312 1.0625 -4.3125 1.0625 -5.4375 L 1.0625 -12.71875 C 1.0625 -13.832031 1.304688 -14.8125 1.796875 -15.65625 C 2.285156 -16.507812 2.976562 -17.164062 3.875 -17.625 C 4.78125 -18.09375 5.816406 -18.328125 6.984375 -18.328125 C 8.140625 -18.328125 9.171875 -18.097656 10.078125 -17.640625 C 10.984375 -17.179688 11.679688 -16.539062 12.171875 -15.71875 C 12.671875 -14.90625 12.921875 -13.976562 12.921875 -12.9375 L 12.921875 -12.375 C 12.921875 -12.289062 12.890625 -12.21875 12.828125 -12.15625 C 12.765625 -12.09375 12.691406 -12.0625 12.609375 -12.0625 L 9.578125 -12.0625 C 9.492188 -12.0625 9.421875 -12.09375 9.359375 -12.15625 C 9.296875 -12.21875 9.265625 -12.289062 9.265625 -12.375 L 9.265625 -12.921875 C 9.265625 -13.578125 9.054688 -14.117188 8.640625 -14.546875 C 8.234375 -14.984375 7.679688 -15.203125 6.984375 -15.203125 C 6.296875 -15.203125 5.738281 -14.972656 5.3125 -14.515625 C 4.894531 -14.066406 4.6875 -13.484375 4.6875 -12.765625 L 4.6875 -5.359375 C 4.6875 -4.628906 4.90625 -4.039062 5.34375 -3.59375 C 5.78125 -3.144531 6.351562 -2.921875 7.0625 -2.921875 C 7.738281 -2.921875 8.28125 -3.117188 8.6875 -3.515625 C 9.09375 -3.910156 9.296875 -4.457031 9.296875 -5.15625 L 9.296875 -6.75 C 9.296875 -6.84375 9.253906 -6.890625 9.171875 -6.890625 L 7.140625 -6.890625 C 7.054688 -6.890625 6.984375 -6.914062 6.921875 -6.96875 C 6.859375 -7.03125 6.828125 -7.109375 6.828125 -7.203125 L 6.828125 -9.546875 C 6.828125 -9.640625 6.859375 -9.710938 6.921875 -9.765625 C 6.984375 -9.828125 7.054688 -9.859375 7.140625 -9.859375 L 12.609375 -9.859375 C 12.691406 -9.859375 12.765625 -9.828125 12.828125 -9.765625 C 12.890625 -9.710938 12.921875 -9.640625 12.921875 -9.546875 L 12.921875 -5.4375 C 12.921875 -3.707031 12.378906 -2.332031 11.296875 -1.3125 C 10.222656 -0.300781 8.785156 0.203125 6.984375 0.203125 Z M 6.984375 0.203125 "/></g></g></g><g fill="#1c274c" fill-opacity="1"><g transform="translate(62.204199, 31.242305)"><g><path d="M 6.984375 0.203125 C 5.816406 0.203125 4.78125 -0.0234375 3.875 -0.484375 C 2.976562 -0.953125 2.285156 -1.613281 1.796875 -2.46875 C 1.304688 -3.320312 1.0625 -4.3125 1.0625 -5.4375 L 1.0625 -12.71875 C 1.0625 -13.832031 1.304688 -14.8125 1.796875 -15.65625 C 2.285156 -16.507812 2.976562 -17.164062 3.875 -17.625 C 4.78125 -18.09375 5.816406 -18.328125 6.984375 -18.328125 C 8.140625 -18.328125 9.171875 -18.097656 10.078125 -17.640625 C 10.984375 -17.179688 11.679688 -16.539062 12.171875 -15.71875 C 12.671875 -14.90625 12.921875 -13.976562 12.921875 -12.9375 L 12.921875 -12.375 C 12.921875 -12.289062 12.890625 -12.21875 12.828125 -12.15625 C 12.765625 -12.09375 12.691406 -12.0625 12.609375 -12.0625 L 9.578125 -12.0625 C 9.492188 -12.0625 9.421875 -12.09375 9.359375 -12.15625 C 9.296875 -12.21875 9.265625 -12.289062 9.265625 -12.375 L 9.265625 -12.921875 C 9.265625 -13.578125 9.054688 -14.117188 8.640625 -14.546875 C 8.234375 -14.984375 7.679688 -15.203125 6.984375 -15.203125 C 6.296875 -15.203125 5.738281 -14.972656 5.3125 -14.515625 C 4.894531 -14.066406 4.6875 -13.484375 4.6875 -12.765625 L 4.6875 -5.359375 C 4.6875 -4.628906 4.90625 -4.039062 5.34375 -3.59375 C 5.78125 -3.144531 6.351562 -2.921875 7.0625 -2.921875 C 7.738281 -2.921875 8.28125 -3.117188 8.6875 -3.515625 C 9.09375 -3.910156 9.296875 -4.457031 9.296875 -5.15625 L 9.296875 -6.75 C 9.296875 -6.84375 9.253906 -6.890625 9.171875 -6.890625 L 7.140625 -6.890625 C 7.054688 -6.890625 6.984375 -6.914062 6.921875 -6.96875 C 6.859375 -7.03125 6.828125 -7.109375 6.828125 -7.203125 L 6.828125 -9.546875 C 6.828125 -9.640625 6.859375 -9.710938 6.921875 -9.765625 C 6.984375 -9.828125 7.054688 -9.859375 7.140625 -9.859375 L 12.609375 -9.859375 C 12.691406 -9.859375 12.765625 -9.828125 12.828125 -9.765625 C 12.890625 -9.710938 12.921875 -9.640625 12.921875 -9.546875 L 12.921875 -5.4375 C 12.921875 -3.707031 12.378906 -2.332031 11.296875 -1.3125 C 10.222656 -0.300781 8.785156 0.203125 6.984375 0.203125 Z M 6.984375 0.203125 "/></g></g></g><g fill="#1c274c" fill-opacity="1"><g transform="translate(76.185172, 31.242305)"><g><path d="M 9.890625 0 C 9.703125 0 9.582031 -0.0859375 9.53125 -0.265625 L 6.90625 -7.40625 C 6.875 -7.476562 6.832031 -7.515625 6.78125 -7.515625 L 5.15625 -7.515625 C 5.0625 -7.515625 5.015625 -7.46875 5.015625 -7.375 L 5.015625 -0.3125 C 5.015625 -0.226562 4.984375 -0.15625 4.921875 -0.09375 C 4.867188 -0.03125 4.800781 0 4.71875 0 L 1.6875 0 C 1.59375 0 1.515625 -0.03125 1.453125 -0.09375 C 1.398438 -0.15625 1.375 -0.226562 1.375 -0.3125 L 1.375 -17.8125 C 1.375 -17.894531 1.398438 -17.96875 1.453125 -18.03125 C 1.515625 -18.09375 1.59375 -18.125 1.6875 -18.125 L 8 -18.125 C 9.019531 -18.125 9.925781 -17.894531 10.71875 -17.4375 C 11.507812 -16.976562 12.117188 -16.332031 12.546875 -15.5 C 12.984375 -14.675781 13.203125 -13.726562 13.203125 -12.65625 C 13.203125 -11.550781 12.957031 -10.59375 12.46875 -9.78125 C 11.988281 -8.96875 11.3125 -8.363281 10.4375 -7.96875 C 10.34375 -7.9375 10.316406 -7.878906 10.359375 -7.796875 L 13.3125 -0.359375 C 13.320312 -0.328125 13.328125 -0.285156 13.328125 -0.234375 C 13.328125 -0.078125 13.234375 0 13.046875 0 Z M 5.15625 -14.984375 C 5.0625 -14.984375 5.015625 -14.941406 5.015625 -14.859375 L 5.015625 -10.4375 C 5.015625 -10.34375 5.0625 -10.296875 5.15625 -10.296875 L 7.40625 -10.296875 C 8.039062 -10.296875 8.554688 -10.507812 8.953125 -10.9375 C 9.347656 -11.363281 9.546875 -11.929688 9.546875 -12.640625 C 9.546875 -13.359375 9.347656 -13.925781 8.953125 -14.34375 C 8.554688 -14.769531 8.039062 -14.984375 7.40625 -14.984375 Z M 5.15625 -14.984375 "/></g></g></g><g fill="#1c274c" fill-opacity="1"><g transform="translate(90.243809, 31.242305)"><g><path d="M 10.953125 0 C 10.765625 0 10.644531 -0.0859375 10.59375 -0.265625 L 10 -2.796875 C 9.976562 -2.867188 9.929688 -2.90625 9.859375 -2.90625 L 5.015625 -2.90625 C 4.953125 -2.90625 4.910156 -2.867188 4.890625 -2.796875 L 4.296875 -0.265625 C 4.242188 -0.0859375 4.132812 0 3.96875 0 L 0.828125 0 C 0.597656 0 0.507812 -0.113281 0.5625 -0.34375 L 5.234375 -17.859375 C 5.285156 -18.035156 5.40625 -18.125 5.59375 -18.125 L 9.34375 -18.125 C 9.53125 -18.125 9.648438 -18.035156 9.703125 -17.859375 L 14.375 -0.34375 L 14.390625 -0.234375 C 14.390625 -0.078125 14.296875 0 14.109375 0 Z M 5.59375 -5.875 C 5.570312 -5.820312 5.578125 -5.78125 5.609375 -5.75 C 5.648438 -5.726562 5.6875 -5.71875 5.71875 -5.71875 L 9.140625 -5.71875 C 9.171875 -5.71875 9.203125 -5.726562 9.234375 -5.75 C 9.273438 -5.78125 9.285156 -5.820312 9.265625 -5.875 L 7.484375 -13.390625 C 7.460938 -13.453125 7.4375 -13.484375 7.40625 -13.484375 C 7.375 -13.484375 7.347656 -13.453125 7.328125 -13.390625 Z M 5.59375 -5.875 "/></g></g></g><g fill="#1c274c" fill-opacity="1"><g transform="translate(105.18273, 31.242305)"><g><path d="M 11.34375 -17.921875 C 11.40625 -18.054688 11.523438 -18.125 11.703125 -18.125 L 14.703125 -18.125 C 14.785156 -18.125 14.859375 -18.09375 14.921875 -18.03125 C 14.984375 -17.96875 15.015625 -17.894531 15.015625 -17.8125 L 15.015625 -0.3125 C 15.015625 -0.226562 14.984375 -0.15625 14.921875 -0.09375 C 14.859375 -0.03125 14.785156 0 14.703125 0 L 11.671875 0 C 11.585938 0 11.515625 -0.03125 11.453125 -0.09375 C 11.390625 -0.15625 11.359375 -0.226562 11.359375 -0.3125 L 11.359375 -11.8125 C 11.359375 -11.875 11.34375 -11.910156 11.3125 -11.921875 C 11.28125 -11.929688 11.242188 -11.910156 11.203125 -11.859375 L 8.828125 -7.921875 C 8.753906 -7.785156 8.632812 -7.71875 8.46875 -7.71875 L 7.875 -7.71875 C 7.695312 -7.71875 7.578125 -7.785156 7.515625 -7.921875 L 5.125 -11.859375 C 5.09375 -11.910156 5.054688 -11.929688 5.015625 -11.921875 C 4.984375 -11.910156 4.96875 -11.875 4.96875 -11.8125 L 4.96875 -0.3125 C 4.96875 -0.226562 4.9375 -0.15625 4.875 -0.09375 C 4.820312 -0.03125 4.75 0 4.65625 0 L 1.625 0 C 1.539062 0 1.46875 -0.03125 1.40625 -0.09375 C 1.351562 -0.15625 1.328125 -0.226562 1.328125 -0.3125 L 1.328125 -17.8125 C 1.328125 -17.894531 1.351562 -17.96875 1.40625 -18.03125 C 1.46875 -18.09375 1.539062 -18.125 1.625 -18.125 L 4.640625 -18.125 C 4.804688 -18.125 4.925781 -18.054688 5 -17.921875 L 8.109375 -12.8125 C 8.160156 -12.707031 8.210938 -12.707031 8.265625 -12.8125 Z M 11.34375 -17.921875 "/></g></g></g></svg>